<svg width="18" height="18" viewBox="0 0 18 18" fill="none" xmlns="http://www.w3.org/2000/svg">
<path d="M1.0001 12.0318H0.850104V12.1818V14.9579C0.847169 15.2815 0.906175 15.6026 1.02381 15.9024C1.14154 16.2025 1.31571 16.4755 1.53643 16.7054C1.75715 16.9352 2.02002 17.1173 2.30982 17.2406C2.5994 17.3637 2.90988 17.4257 3.22305 17.4226H14.7769C15.0901 17.4257 15.4006 17.3637 15.6902 17.2406C15.98 17.1173 16.2428 16.9352 16.4636 16.7054C16.6843 16.4755 16.8585 16.2025 16.9762 15.9024C17.0938 15.6025 17.1528 15.2814 17.1499 14.9578V12.1818V12.0318H16.9999H16.111H15.961V12.1818V14.9568C15.9529 15.2849 15.8241 15.5962 15.6028 15.8266C15.3818 16.0568 15.0856 16.1887 14.7757 16.197H3.22426C2.91442 16.1887 2.61822 16.0568 2.39718 15.8266C2.17591 15.5962 2.0471 15.2849 2.03898 14.9568V12.1818V12.0318H1.88898H1.0001Z" fill="#111111" stroke="black" stroke-width="0.3"/>
<path d="M12.7506 7.51114L12.6447 7.41799L12.5452 7.51798L9.59562 10.4827V1V0.85H9.44562H8.55509H8.40509V1V10.4827L5.45549 7.51798L5.356 7.41799L5.25009 7.51114L4.53766 8.13771L4.41788 8.24306L4.53038 8.35614L8.89402 12.7422L9.00036 12.849L9.10669 12.7422L13.4703 8.35614L13.5828 8.24306L13.4631 8.13771L12.7506 7.51114Z" fill="#111111" stroke="black" stroke-width="0.3"/>
</svg>
