<svg width="175" height="352" viewBox="0 0 175 352" fill="none" xmlns="http://www.w3.org/2000/svg">
<path fill-rule="evenodd" clip-rule="evenodd" d="M-175.749 161.107C-187.018 212.324 -172.737 268.032 -132.904 307.865C-93.0707 347.698 -37.362 361.98 13.855 350.71L13.0146 349.87C-37.7082 360.816 -92.776 346.579 -132.197 307.158C-171.617 267.738 -185.854 212.67 -174.908 161.947L-175.749 161.107ZM133.941 229.064C144.949 178.298 130.723 123.159 91.2627 83.6989C51.8023 44.2386 -3.33671 30.0125 -54.1019 41.0207L-54.9418 40.1808C-3.68276 28.8488 52.0971 43.1192 91.9698 82.9918C131.842 122.865 146.113 178.644 134.781 229.903L133.941 229.064Z" fill="url(#paint0_linear_939_475)" fill-opacity="0.3"/>
<circle cx="137.798" cy="189.798" r="8" transform="rotate(-105 137.798 189.798)" fill="#019955"/>
<defs>
<linearGradient id="paint0_linear_939_475" x1="-10.2426" y1="361.32" x2="20.1036" y2="38.4049" gradientUnits="userSpaceOnUse">
<stop stop-color="#017960" stop-opacity="0.78"/>
<stop offset="1" stop-color="#91C042" stop-opacity="0.85"/>
</linearGradient>
</defs>
</svg>
