<svg width="92" height="279" viewBox="0 0 92 279" fill="none" xmlns="http://www.w3.org/2000/svg">
<path fill-rule="evenodd" clip-rule="evenodd" d="M151.139 278.744C161.735 278.267 172.445 276.56 183.091 273.526C256.908 252.487 299.693 175.591 278.654 101.774C276.04 92.5999 272.562 83.9055 268.335 75.7534L267.741 76.783C271.805 84.7119 275.157 93.1528 277.693 102.048C298.58 175.334 256.103 251.677 182.817 272.564C172.461 275.516 162.045 277.202 151.733 277.715L151.139 278.744ZM138.396 2.01431C128.039 2.51919 117.577 4.20733 107.176 7.17175C33.8899 28.0593 -8.58749 104.402 12.3001 177.688C14.8482 186.629 18.2216 195.11 22.3141 203.075L21.72 204.104C17.4648 195.916 13.966 187.181 11.3384 177.962C-9.70056 104.145 33.0846 27.249 106.902 6.21005C117.593 3.1629 128.349 1.45456 138.99 0.985442L138.396 2.01431Z" fill="url(#paint0_linear_939_476)" fill-opacity="0.3"/>
<circle cx="8.90736" cy="160.928" r="6" transform="rotate(150 8.90736 160.928)" fill="#91D1A7"/>
<defs>
<linearGradient id="paint0_linear_939_476" x1="282.738" y1="93.7081" x2="3.24989" y2="141.137" gradientUnits="userSpaceOnUse">
<stop stop-color="#017960" stop-opacity="0.78"/>
<stop offset="1" stop-color="#91C042" stop-opacity="0.85"/>
</linearGradient>
</defs>
</svg>
