<svg width="20" height="20" viewBox="0 0 20 20" fill="none" xmlns="http://www.w3.org/2000/svg">
<path d="M19 10C19 7.85738 18.2356 5.78504 16.8442 4.15564C15.4529 2.52624 13.5258 1.44668 11.4097 1.11108C9.29348 0.775485 7.127 1.20587 5.29978 2.32485C3.47257 3.44382 2.1045 5.17798 1.44159 7.21547C0.778678 9.25297 0.864417 11.4601 1.68339 13.44C2.50236 15.42 4.00083 17.0428 5.90934 18.0166C7.81786 18.9905 10.0112 19.2515 12.095 18.7528C14.1787 18.254 16.0162 17.0282 17.277 15.2958" stroke="#111111" stroke-width="1.5" stroke-linecap="square"/>
<path d="M14 10L8 13.4641L8 6.5359L14 10Z" fill="#111111"/>
</svg>
