<svg width="360" height="505" viewBox="0 0 360 505" fill="none" xmlns="http://www.w3.org/2000/svg">
<path fill-rule="evenodd" clip-rule="evenodd" d="M208.641 88.6932C154.621 60.6804 87.8936 59.957 31.2859 92.6394C-25.3218 125.322 -58.059 183.471 -60.8092 244.26L-59.78 243.666C-56.8452 183.438 -24.3168 125.896 31.7859 93.5054C87.8886 61.1145 153.986 61.715 207.612 89.2873L208.641 88.6932ZM39.3038 415.481C92.9588 443.136 159.132 443.77 215.292 411.347C271.451 378.923 303.988 321.298 306.866 261.004L307.895 260.41C305.202 321.265 272.456 379.498 215.792 412.213C159.128 444.928 92.3235 444.17 38.2753 416.075L39.3038 415.481Z" fill="url(#paint0_linear_939_477)" fill-opacity="0.3"/>
<circle cx="54" cy="423" r="8" fill="#91D1A7"/>
<defs>
<linearGradient id="paint0_linear_939_477" x1="-65.464" y1="214.065" x2="287.348" y2="345.055" gradientUnits="userSpaceOnUse">
<stop stop-color="#017960" stop-opacity="0.78"/>
<stop offset="1" stop-color="#91C042" stop-opacity="0.85"/>
</linearGradient>
</defs>
</svg>
